<?xml version="1.0" encoding="UTF-8"?>
<svg id="Layer_1" data-name="Layer 1" xmlns="http://www.w3.org/2000/svg" viewBox="0 0 399 348">
  <defs>
    <style>
      .cls-1 {
        fill: #6f0d00;
        stroke-width: 0px;
      }
    </style>
  </defs>
  <path class="cls-1" d="m8.14,3.66v231.21s180.29,100.44,180.29,100.44l184.38-100.53V3.56s-364.66.1-364.66.1Zm351.67,221.65l-171.37,94.72L20.81,225.56V17s339.01-.1,339.01-.1v208.41Z"/>
  <g>
    <g>
      <path class="cls-1" d="m156.26,143.09c-2.8,9.6-8,24-11,30.2-5.8,1.2-21.4,4.8-36.6,4.8-47.8,0-72.2-31.8-72.2-66.8,0-40.8,31-69,75.8-69,17.2,0,31.2,3.6,37.8,4.6.8,9,2.2,21,3.8,31l-6.2,1.4c-4-13.4-8.8-21.6-19-25.8-5.2-2.4-13.4-3.8-21-3.8-33,0-50.4,24.4-50.4,57.4,0,38.6,20,63.4,52.4,63.4,20.4,0,30.4-9.4,40.6-29.4l6,2Z"/>
      <path class="cls-1" d="m108.66,180.59c-23.04,0-42.33-7.27-55.81-21.03-12.18-12.43-18.89-29.58-18.89-48.27,0-42.1,32.2-71.5,78.3-71.5,13.66,0,25.23,2.21,32.89,3.67,2.08.4,3.88.74,5.29.95l1.94.29.17,1.96c.7,7.84,2.06,20.06,3.78,30.83l.37,2.32-10.77,2.43-.67-2.24c-4.21-14.11-8.97-20.67-17.56-24.2l-.1-.04c-4.7-2.17-12.53-3.57-19.95-3.57-29.55,0-47.9,21.04-47.9,54.9,0,37.56,19.12,60.9,49.9,60.9,18,0,27.68-7.07,38.37-28.04l.98-1.92,10.32,3.44-.67,2.31c-2.95,10.12-8.16,24.41-11.15,30.59l-.54,1.11-2.89.6c-6.9,1.46-21.26,4.5-35.43,4.5Zm3.6-135.8c-21.35,0-39.68,6.41-53.02,18.55-13.27,12.08-20.28,28.66-20.28,47.95,0,32.01,21.55,64.3,69.7,64.3,13.64,0,27.66-2.96,34.39-4.39l.47-.1c2.68-5.88,6.9-17.45,9.64-26.4l-1.67-.56c-9.64,18.31-19.89,28.85-41.84,28.85-16.61,0-30.54-6.27-40.28-18.14-9.56-11.65-14.62-28.17-14.62-47.76,0-17.34,4.63-32.09,13.4-42.67,9.34-11.27,23-17.23,39.5-17.23,8.19,0,16.61,1.54,22,4.01,10.9,4.51,15.92,13.3,19.71,25.14l1.66-.38c-1.44-9.43-2.6-19.62-3.28-26.93-1.06-.19-2.25-.42-3.53-.66-7.47-1.43-18.77-3.58-31.95-3.58Z"/>
    </g>
    <g>
      <path class="cls-1" d="m287.45,178.09v-5.73c16.4-1.64,17-2.86,16.8-24.76l.2-83.48c-16.4,37.44-42.8,95.96-49.8,113.97h-5.2c-6.8-18.62-29.4-74.89-44.6-111.92-3.4,71.61-3.6,87.78-3.6,91.67.2,11.46,5.2,13.1,18.8,14.53v5.73h-47.4v-5.73c11.6-1.23,16.4-3.68,18-14.73,1.2-9,1.4-16.37,6.6-91.05.8-10.64-1.2-14.12-18.8-15.75v-5.73h34.8l44.2,103.74,47.4-103.74h35v5.73c-17.2,2.05-19.4,3.89-19,18.21l.8,78.57c.8,21.89,1.4,22.92,19,24.76v5.73h-53.2Z"/>
      <path class="cls-1" d="m343.15,180.59h-58.2v-10.49l2.25-.22q14.74-1.47,14.55-22.25l.17-71.54c-3.93,8.91-8.2,18.54-12.64,28.56-13.53,30.5-27.51,62.04-32.3,74.35l-.62,1.59h-8.66l-.6-1.64c-6.36-17.41-26.09-66.6-40.28-101.38-2.75,59.17-3.07,75.79-3.07,80.26.16,9.36,3.28,10.64,16.56,12.04l2.24.24v10.48h-52.4v-10.48l2.24-.24c10.81-1.14,14.4-3.03,15.79-12.6.78-5.87,1.13-11.03,2.81-35.81.85-12.51,2.03-29.99,3.77-55.06.67-8.91.12-11.54-16.54-13.09l-2.27-.21v-10.51h38.95l42.63,100.05,45.71-100.05h39.11v10.45l-2.21.26c-7.88.94-12.55,1.83-14.68,3.84-1.78,1.69-2.32,4.67-2.12,11.82l.8,78.62q.75,20.62,16.76,22.3l2.24.23v10.48Zm-53.2-5h48.2v-.98c-7.73-.86-12.41-1.8-15.29-5.59-2.94-3.87-3.29-9.97-3.71-21.32l-.8-78.64c-.44-15.75,3.27-18.41,19-20.45v-1.02h-30.89l-49.09,107.43-45.77-107.43h-30.65v.97c15.81,1.77,19.73,5.78,18.79,18.2-1.74,25.05-2.93,42.53-3.77,55.03-1.68,24.91-2.04,30.1-2.84,36.16-1.73,11.94-7.23,15.2-17.98,16.62v1.01h42.4v-.99c-11.56-1.34-18.57-3.49-18.8-16.72,0-5.98.47-25.8,3.6-91.83l.53-11.25,4.28,10.42c13.8,33.63,36.33,89.59,44.03,110.37h1.75c5.33-13.37,18.76-43.65,31.76-72.98,6.33-14.28,12.31-27.77,17.45-39.5l4.82-11-.23,95.49c.1,11.32.04,17.43-2.6,21.36-2.62,3.92-7.18,4.88-14.2,5.65v.98Z"/>
    </g>
  </g>
  <polygon class="cls-1" points="190.32 288.81 344.67 203.39 35.96 203.39 190.32 288.81"/>
</svg>