<?xml version="1.0" encoding="UTF-8"?>
<svg xmlns="http://www.w3.org/2000/svg" xmlns:xlink="http://www.w3.org/1999/xlink" width="144px" height="144px" viewBox="0 0 144 144" version="1.1">
<g id="surface1">
<path style=" stroke:none;fill-rule:nonzero;fill:rgb(31.372549%,3.529412%,0%);fill-opacity:1;" d="M 2.9375 1.515625 L 2.9375 97.1875 C 2.9375 97.1875 68.003906 138.75 68.003906 138.75 L 134.546875 97.148438 L 134.546875 1.472656 C 134.546875 1.472656 2.941406 1.515625 2.941406 1.515625 Z M 129.855469 93.230469 L 68.007812 132.425781 L 7.511719 93.335938 L 7.511719 7.035156 C 7.511719 7.035156 129.859375 6.992188 129.859375 6.992188 L 129.859375 93.230469 Z M 129.855469 93.230469 "/>
<path style=" stroke:none;fill-rule:nonzero;fill:rgb(31.372549%,3.529412%,0%);fill-opacity:1;" d="M 56.394531 59.210938 C 55.382812 63.183594 53.507812 69.140625 52.425781 71.707031 C 50.332031 72.203125 44.703125 73.691406 39.214844 73.691406 C 21.964844 73.691406 13.160156 60.535156 13.160156 46.050781 C 13.160156 29.167969 24.347656 17.5 40.515625 17.5 C 46.722656 17.5 51.773438 18.988281 54.15625 19.402344 C 54.445312 23.125 54.949219 28.09375 55.527344 32.230469 L 53.289062 32.808594 C 51.847656 27.265625 50.113281 23.871094 46.433594 22.132812 C 44.558594 21.140625 41.597656 20.5625 38.855469 20.5625 C 26.945312 20.5625 20.664062 30.65625 20.664062 44.3125 C 20.664062 60.285156 27.882812 70.546875 39.578125 70.546875 C 46.9375 70.546875 50.546875 66.65625 54.230469 58.382812 Z M 56.394531 59.210938 "/>
<path style=" stroke:none;fill-rule:nonzero;fill:rgb(31.372549%,3.529412%,0%);fill-opacity:1;" d="M 39.214844 74.726562 C 30.902344 74.726562 23.9375 71.71875 19.074219 66.023438 C 14.679688 60.882812 12.257812 53.785156 12.257812 46.050781 C 12.257812 28.628906 23.878906 16.464844 40.515625 16.464844 C 45.445312 16.464844 49.621094 17.378906 52.386719 17.984375 C 53.136719 18.148438 53.785156 18.289062 54.292969 18.375 L 54.996094 18.496094 L 55.054688 19.308594 C 55.308594 22.550781 55.800781 27.609375 56.417969 32.066406 L 56.554688 33.023438 L 52.667969 34.03125 L 52.425781 33.101562 C 50.90625 27.265625 49.1875 24.550781 46.085938 23.089844 L 46.050781 23.074219 C 44.355469 22.175781 41.527344 21.597656 38.851562 21.597656 C 28.1875 21.597656 21.5625 30.300781 21.5625 44.3125 C 21.5625 59.855469 28.464844 69.511719 39.574219 69.511719 C 46.070312 69.511719 49.5625 66.585938 53.421875 57.910156 L 53.773438 57.117188 L 57.5 58.539062 L 57.257812 59.496094 C 56.191406 63.683594 54.3125 69.597656 53.234375 72.152344 L 53.039062 72.613281 L 51.996094 72.859375 C 49.503906 73.464844 44.324219 74.722656 39.207031 74.722656 Z M 40.515625 18.535156 C 32.808594 18.535156 26.195312 21.1875 21.378906 26.210938 C 16.589844 31.207031 14.0625 38.070312 14.0625 46.050781 C 14.0625 59.296875 21.839844 72.65625 39.214844 72.65625 C 44.136719 72.65625 49.199219 71.433594 51.628906 70.839844 L 51.796875 70.800781 C 52.765625 68.367188 54.285156 63.578125 55.277344 59.875 L 54.671875 59.644531 C 51.195312 67.21875 47.496094 71.582031 39.574219 71.582031 C 33.578125 71.582031 28.550781 68.988281 25.035156 64.074219 C 21.585938 59.253906 19.757812 52.417969 19.757812 44.3125 C 19.757812 37.136719 21.429688 31.035156 24.59375 26.65625 C 27.964844 21.992188 32.894531 19.527344 38.851562 19.527344 C 41.808594 19.527344 44.847656 20.164062 46.789062 21.1875 C 50.726562 23.050781 52.535156 26.691406 53.90625 31.589844 L 54.503906 31.433594 C 53.984375 27.53125 53.566406 23.3125 53.320312 20.289062 C 52.9375 20.210938 52.507812 20.113281 52.046875 20.015625 C 49.351562 19.421875 45.273438 18.535156 40.515625 18.535156 Z M 40.515625 18.535156 "/>
<path style=" stroke:none;fill-rule:nonzero;fill:rgb(31.372549%,3.529412%,0%);fill-opacity:1;" d="M 103.742188 73.691406 L 103.742188 71.320312 C 109.660156 70.644531 109.875 70.136719 109.804688 61.074219 L 109.875 26.53125 C 103.957031 42.023438 94.429688 66.238281 91.902344 73.691406 L 90.027344 73.691406 C 87.574219 65.988281 79.417969 42.703125 73.929688 27.378906 C 72.703125 57.011719 72.632812 63.703125 72.632812 65.3125 C 72.703125 70.054688 74.507812 70.734375 79.417969 71.324219 L 79.417969 73.695312 L 62.308594 73.695312 L 62.308594 71.324219 C 66.496094 70.816406 68.230469 69.804688 68.804688 65.230469 C 69.238281 61.507812 69.3125 58.457031 71.1875 27.554688 C 71.476562 23.152344 70.753906 21.710938 64.402344 21.039062 L 64.402344 18.667969 L 76.960938 18.667969 L 92.914062 61.59375 L 110.019531 18.667969 L 122.652344 18.667969 L 122.652344 21.039062 C 116.445312 21.886719 115.652344 22.648438 115.796875 28.574219 L 116.085938 61.085938 C 116.371094 70.140625 116.589844 70.566406 122.941406 71.328125 L 122.941406 73.699219 L 103.742188 73.699219 Z M 103.742188 73.691406 "/>
<path style=" stroke:none;fill-rule:nonzero;fill:rgb(31.372549%,3.529412%,0%);fill-opacity:1;" d="M 123.84375 74.726562 L 102.839844 74.726562 L 102.839844 70.386719 L 103.652344 70.296875 C 107.199219 69.890625 108.949219 66.820312 108.902344 61.089844 L 108.964844 31.484375 C 107.546875 35.171875 106.003906 39.15625 104.402344 43.304688 C 99.519531 55.925781 94.472656 68.976562 92.746094 74.070312 L 92.519531 74.726562 L 89.394531 74.726562 L 89.179688 74.046875 C 86.882812 66.84375 79.761719 46.488281 74.640625 32.097656 C 73.648438 56.582031 73.535156 63.460938 73.535156 65.308594 C 73.589844 69.183594 74.71875 69.710938 79.511719 70.292969 L 80.320312 70.390625 L 80.320312 74.726562 L 61.40625 74.726562 L 61.40625 70.390625 L 62.214844 70.292969 C 66.117188 69.820312 67.414062 69.039062 67.914062 65.078125 C 68.195312 62.648438 68.324219 60.511719 68.929688 50.257812 C 69.234375 45.082031 69.660156 37.851562 70.289062 27.476562 C 70.53125 23.789062 70.332031 22.699219 64.320312 22.058594 L 63.5 21.972656 L 63.5 17.625 L 77.558594 17.625 L 92.941406 59.023438 L 109.441406 17.625 L 123.554688 17.625 L 123.554688 21.949219 L 122.757812 22.054688 C 119.914062 22.445312 118.226562 22.8125 117.460938 23.644531 C 116.816406 24.34375 116.621094 25.578125 116.695312 28.535156 L 116.984375 61.066406 C 117.164062 66.757812 119.179688 69.832031 123.03125 70.296875 L 123.839844 70.390625 L 123.839844 74.726562 Z M 104.644531 72.65625 L 122.039062 72.65625 L 122.039062 72.253906 C 119.25 71.898438 117.558594 71.507812 116.519531 69.9375 C 115.460938 68.339844 115.332031 65.8125 115.183594 61.117188 L 114.894531 28.578125 C 114.734375 22.058594 116.074219 20.957031 121.75 20.113281 L 121.75 19.691406 L 110.601562 19.691406 L 92.886719 64.144531 L 76.367188 19.691406 L 65.304688 19.691406 L 65.304688 20.09375 C 71.011719 20.828125 72.425781 22.484375 72.085938 27.625 C 71.457031 37.992188 71.027344 45.222656 70.726562 50.394531 C 70.121094 60.703125 69.988281 62.851562 69.699219 65.359375 C 69.078125 70.300781 67.089844 71.648438 63.210938 72.234375 L 63.210938 72.652344 L 78.515625 72.652344 L 78.515625 72.242188 C 74.34375 71.691406 71.8125 70.800781 71.730469 65.324219 C 71.730469 62.851562 71.898438 54.648438 73.027344 27.328125 L 73.21875 22.671875 L 74.765625 26.984375 C 79.746094 40.898438 87.875 64.054688 90.65625 72.652344 L 91.285156 72.652344 C 93.210938 67.121094 98.058594 54.589844 102.75 42.457031 C 105.035156 36.546875 107.191406 30.964844 109.046875 26.109375 L 110.785156 21.558594 L 110.703125 61.070312 C 110.738281 65.757812 110.71875 68.285156 109.765625 69.910156 C 108.820312 71.53125 107.171875 71.929688 104.640625 72.25 L 104.640625 72.652344 Z M 104.644531 72.65625 "/>
<path style=" stroke:none;fill-rule:nonzero;fill:rgb(31.372549%,3.529412%,0%);fill-opacity:1;" d="M 68.6875 119.507812 L 124.390625 84.160156 L 12.976562 84.160156 Z M 68.6875 119.507812 "/>
</g>
</svg>
